<!-- Generated by IcoMoon.io -->
<svg version="1.1" xmlns="http://www.w3.org/2000/svg" width="27" height="32" viewBox="0 0 27 32">
<title>ok-circled2</title>
<path d="M20.928 14.528l-7.552 7.52q-0.352 0.352-0.8 0.352t-0.8-0.352l-5.248-5.248q-0.352-0.352-0.352-0.8t0.352-0.8l1.824-1.824q0.32-0.352 0.8-0.352t0.8 0.352l2.624 2.624 4.896-4.928q0.352-0.32 0.8-0.32t0.832 0.32l1.824 1.824q0.32 0.352 0.32 0.832t-0.32 0.8zM23.424 16q0-2.656-1.312-4.864t-3.52-3.552-4.864-1.312-4.896 1.312-3.52 3.552-1.312 4.864 1.312 4.864 3.52 3.552 4.896 1.312 4.864-1.312 3.52-3.552 1.312-4.864zM27.424 16q0 3.744-1.824 6.88t-4.992 4.992-6.88 1.856-6.912-1.856-4.96-4.992-1.856-6.88 1.856-6.88 4.96-4.992 6.912-1.856 6.88 1.856 4.992 4.992 1.824 6.88z"></path>
</svg>
